HIERARCHY
ROOT hip
{
  OFFSET 0 0 0
  CHANNELS 6 Xposition Yposition Zposition Zrotation Yrotation Xrotation
  JOINT abdomen
  {
    OFFSET 0 20.6881 -0.73152
    CHANNELS 3 Zrotation Xrotation Yrotation
    JOINT chest
    {
      OFFSET 0 11.7043 -0.48768
      CHANNELS 3 Zrotation Xrotation Yrotation
      JOINT neck
      {
        OFFSET 0 22.1894 -2.19456
        CHANNELS 3 Zrotation Xrotation Yrotation
        JOINT head
        {
          OFFSET -0.24384 7.07133 1.2192
          CHANNELS 3 Zrotation Xrotation Yrotation
          JOINT leftEye
          {
            OFFSET 4.14528 8.04674 8.04672
            CHANNELS 3 Zrotation Xrotation Yrotation
            End Site
            {
              OFFSET 1 0 0
            }
          }
          JOINT rightEye
          {
            OFFSET -3.6576 8.04674 8.04672
            CHANNELS 3 Zrotation Xrotation Yrotation
            End Site
            {
              OFFSET 1 0 0
            }
          }
        }
      }
      JOINT rCollar
      {
        OFFSET -2.68224 19.2634 -4.8768
        CHANNELS 3 Zrotation Xrotation Yrotation
        JOINT rShldr
        {
          OFFSET -8.77824 -1.95073 1.46304
          CHANNELS 3 Zrotation Xrotation Yrotation
          JOINT rForeArm
          {
            OFFSET -28.1742 -1.7115 0.48768
            CHANNELS 3 Zrotation Xrotation Yrotation
            JOINT rHand
            {
              OFFSET -22.5879 0.773209 7.07136
              CHANNELS 3 Zrotation Xrotation Yrotation
              JOINT rThumb1
              {
                OFFSET -1.2192 -0.487915 3.41376
                CHANNELS 3 Zrotation Xrotation Yrotation
                JOINT rThumb2
                {
                  OFFSET -3.37035 -0.52449 3.41376
                  CHANNELS 3 Zrotation Xrotation Yrotation
                  End Site
                  {
                    OFFSET -1.78271 -1.18214 1.43049
                  }
                }
              }
              JOINT rIndex1
              {
                OFFSET -7.75947 0.938293 5.60832
                CHANNELS 3 Zrotation Xrotation Yrotation
                JOINT rIndex2
                {
                  OFFSET -2.54057 -0.884171 1.56538
                  CHANNELS 3 Zrotation Xrotation Yrotation
                  End Site
                  {
                    OFFSET -1.62519 -0.234802 1.16502
                  }
                }
              }
              JOINT rMid1
              {
                OFFSET -8.24714 1.18213 3.41376
                CHANNELS 3 Zrotation Xrotation Yrotation
                JOINT rMid2
                {
                  OFFSET -3.10165 -0.590103 1.0647
                  CHANNELS 3 Zrotation Xrotation Yrotation
                  End Site
                  {
                    OFFSET -2.48547 -0.328903 0.83742
                  }
                }
              }
              JOINT rRing1
              {
                OFFSET -8.82822 0.546677 1.51678
                CHANNELS 3 Zrotation Xrotation Yrotation
                JOINT rRing2
                {
                  OFFSET -2.60934 -0.819778 -0.0198488
                  CHANNELS 3 Zrotation Xrotation Yrotation
                  End Site
                  {
                    OFFSET -2.33842 -0.294052 0.168128
                  }
                }
              }
              JOINT rPinky1
              {
                OFFSET -8.27202 -0.0477905 -0.4584
                CHANNELS 3 Zrotation Xrotation Yrotation
                JOINT rPinky2
                {
                  OFFSET -1.82734 -0.647385 -0.700984
                  CHANNELS 3 Zrotation Xrotation Yrotation
                  End Site
                  {
                    OFFSET -1.69225 -0.51767 -0.607171
                  }
                }
              }
            }
          }
        }
      }
      JOINT lCollar
      {
        OFFSET 2.68224 19.2634 -4.8768
        CHANNELS 3 Zrotation Xrotation Yrotation
        JOINT lShldr
        {
          OFFSET 8.77824 -1.95073 1.46304
          CHANNELS 3 Zrotation Xrotation Yrotation
          JOINT lForeArm
          {
            OFFSET 28.1742 -1.7115 0.48768
            CHANNELS 3 Zrotation Xrotation Yrotation
            JOINT lHand
            {
              OFFSET 22.5879 0.773209 7.07136
              CHANNELS 3 Zrotation Xrotation Yrotation
              JOINT lThumb1
              {
                OFFSET 1.2192 -0.487915 3.41376
                CHANNELS 3 Zrotation Xrotation Yrotation
                JOINT lThumb2
                {
                  OFFSET 3.37035 -0.52449 3.41376
                  CHANNELS 3 Zrotation Xrotation Yrotation
                  End Site
                  {
                    OFFSET 1.78271 -1.18214 1.43049
                  }
                }
              }
              JOINT lIndex1
              {
                OFFSET 7.75947 0.938293 5.60832
                CHANNELS 3 Zrotation Xrotation Yrotation
                JOINT lIndex2
                {
                  OFFSET 2.54057 -0.884171 1.56538
                  CHANNELS 3 Zrotation Xrotation Yrotation
                  End Site
                  {
                    OFFSET 1.62519 -0.234802 1.16502
                  }
                }
              }
              JOINT lMid1
              {
                OFFSET 8.24714 1.18213 3.41376
                CHANNELS 3 Zrotation Xrotation Yrotation
                JOINT lMid2
                {
                  OFFSET 3.10165 -0.590103 1.0647
                  CHANNELS 3 Zrotation Xrotation Yrotation
                  End Site
                  {
                    OFFSET 2.48547 -0.328903 0.83742
                  }
                }
              }
              JOINT lRing1
              {
                OFFSET 8.82822 0.546677 1.51678
                CHANNELS 3 Zrotation Xrotation Yrotation
                JOINT lRing2
                {
                  OFFSET 2.60934 -0.819778 -0.0198488
                  CHANNELS 3 Zrotation Xrotation Yrotation
                  End Site
                  {
                    OFFSET 2.33842 -0.294052 0.168128
                  }
                }
              }
              JOINT lPinky1
              {
                OFFSET 8.27202 -0.0477905 -0.4584
                CHANNELS 3 Zrotation Xrotation Yrotation
                JOINT lPinky2
                {
                  OFFSET 1.82734 -0.647385 -0.700984
                  CHANNELS 3 Zrotation Xrotation Yrotation
                  End Site
                  {
                    OFFSET 1.69225 -0.51767 -0.607171
                  }
                }
              }
            }
          }
        }
      }
    }
  }
  JOINT rButtock
  {
    OFFSET -8.77824 4.35084 1.2192
    CHANNELS 3 Zrotation Xrotation Yrotation
    JOINT rThigh
    {
      OFFSET 0 -1.70687 -2.19456
      CHANNELS 3 Zrotation Xrotation Yrotation
      JOINT rShin
      {
        OFFSET 0 -36.8199 0.73152
        CHANNELS 3 Zrotation Xrotation Yrotation
        JOINT rFoot
        {
          OFFSET 0.73152 -45.1104 -5.12064
          CHANNELS 3 Zrotation Xrotation Yrotation
          End Site
          {
            OFFSET -1.1221 -3.69964 12.103
          }
        }
      }
    }
  }
  JOINT lButtock
  {
    OFFSET 8.77824 4.35084 1.2192
    CHANNELS 3 Zrotation Xrotation Yrotation
    JOINT lThigh
    {
      OFFSET 0 -1.70687 -2.19456
      CHANNELS 3 Zrotation Xrotation Yrotation
      JOINT lShin
      {
        OFFSET 0 -36.8199 0.73152
        CHANNELS 3 Zrotation Xrotation Yrotation
        JOINT lFoot
        {
          OFFSET -0.73152 -45.1104 -5.12064
          CHANNELS 3 Zrotation Xrotation Yrotation
          End Site
          {
            OFFSET 1.1221 -3.69964 12.103
          }
        }
      }
    }
  }
}
MOTION
Frames:	4
Frame Time:	0.00833333
9.01299 83.0338 19.2263 -0.7417 -4.9595 12.5403 4.00128 -12.3836 -0.19143 -2.00817 -5.13602 -0.284739 12.5466 5.14152 4.23126 -12.257 7.79594 6.70805 -0.0 0.0 0.0 -0.0 0.0 0.0 4.56235e-14 -4.2935e-14 1.93368e-13 75.0785 20.1855 -16.0954 -17.1405 -9.79157 32.1193 -0.00798367 -2.55032 -0.358663 -4.9918e-10 7.77244e-10 8.89986e-10 -8.63289e-10 1.34761e-09 1.54137e-09 -4.99179e-10 7.77247e-10 8.89973e-10 7.73091 5.47488 0.417314 -4.9918e-10 7.77244e-10 8.89992e-10 2.90554 0.965183 0.102902 -4.99171e-10 7.77244e-10 8.89986e-10 10.2786 0.731801 0.0259123 -4.99188e-10 7.77247e-10 8.89996e-10 2.22167 -0.733487 -0.20892 4.56217e-14 -4.29398e-14 1.9307e-13 -74.4917 34.3465 20.3528 25.4525 -22.1033 -54.6029 0.0323651 5.12836 -0.722695 -6.85588e-10 -1.45695e-09 1.81428e-10 -1.18606e-09 -2.51111e-09 3.18529e-10 -6.85592e-10 -1.45695e-09 1.81422e-10 -7.73091 5.47488 -0.417314 -6.85588e-10 -1.45695e-09 1.81416e-10 -2.90554 0.965183 -0.102902 -6.85591e-10 -1.45694e-09 1.81416e-10 -10.2786 0.731801 -0.0259123 -6.85582e-10 -1.45694e-09 1.81406e-10 -2.22167 -0.733487 0.20892 -2.03217e-16 0.0 -3.88251e-19 -5.22595 -16.8854 4.24635 -0.0273701 18.9871 0.618975 -10.984 -12.539 -31.6891 2.03217e-16 0.0 3.88251e-19 0.892159 -22.4503 -9.30088 0.0885778 21.896 -0.36528 4.2778 -8.01549 16.6602
9.2636 83.0175 19.4165 -0.7239 -4.1177 12.5222 3.92675 -12.5163 0.0856559 -2.0747 -5.10648 -0.203005 12.4098 5.19935 4.08048 -11.8143 7.69218 6.42331 -0.0 0.0 0.0 -0.0 0.0 0.0 3.33544e-14 -5.18558e-14 2.01556e-13 75.2875 20.1949 -15.9193 -17.0574 -9.70792 31.9387 -0.0059016 -2.21621 -0.311622 -4.06767e-10 8.40725e-10 9.37737e-10 -7.04178e-10 1.4584e-09 1.62401e-09 -4.06765e-10 8.40727e-10 9.37726e-10 7.73091 5.47488 0.417314 -4.06768e-10 8.40724e-10 9.37744e-10 2.90554 0.965183 0.102902 -4.06758e-10 8.40724e-10 9.37737e-10 10.2786 0.731801 0.0259123 -4.06774e-10 8.40727e-10 9.37746e-10 2.22167 -0.733487 -0.20892 3.33365e-14 -5.18601e-14 2.01275e-13 -74.4914 33.234 20.4878 25.2288 -21.5962 -53.7827 0.0215161 4.29335 -0.604481 -5.4218e-10 -1.08122e-09 1.07093e-10 -9.38148e-10 -1.8615e-09 1.89336e-10 -5.42186e-10 -1.08122e-09 1.07092e-10 -7.73091 5.47488 -0.417314 -5.42181e-10 -1.08122e-09 1.07084e-10 -2.90554 0.965183 -0.102902 -5.42183e-10 -1.08121e-09 1.07084e-10 -10.2786 0.731801 -0.0259123 -5.42176e-10 -1.08121e-09 1.07075e-10 -2.22167 -0.733487 0.20892 -2.03217e-16 0.0 -3.88251e-19 -5.16537 -16.3031 4.77421 -0.0243654 18.584 0.599954 -10.7036 -12.5258 -31.1108 2.03217e-16 0.0 3.88251e-19 0.743255 -22.577 -9.43752 0.0918753 22.0734 -0.366525 4.15699 -8.10715 15.9937
9.50682 82.9996 19.6088 -0.6949 -3.2783 12.5018 3.83252 -12.6528 0.348001 -2.13525 -5.06545 -0.124391 12.2697 5.25488 3.92297 -11.3857 7.57736 6.12576 -0.0 0.0 0.0 -0.0 0.0 0.0 2.95742e-15 -4.19423e-14 1.34291e-13 75.5023 20.2268 -15.7388 -16.9806 -9.63128 31.7715 -0.00401425 -1.85657 -0.261011 -1.09997e-10 5.76433e-10 6.34106e-10 -1.9136e-10 1.0007e-09 1.09798e-09 -1.09994e-10 5.76433e-10 6.34096e-10 7.73091 5.47488 0.417314 -1.09999e-10 5.7643e-10 6.34111e-10 2.90554 0.965183 0.102902 -1.09988e-10 5.76431e-10 6.34105e-10 10.2786 0.731801 0.0259123 -1.10002e-10 5.76434e-10 6.34114e-10 2.22167 -0.733487 -0.20892 2.91625e-15 -4.19449e-14 1.3404e-13 -74.4795 32.2441 20.6205 25.0128 -21.1239 -52.9987 0.0118429 3.35509 -0.471977 -2.02865e-10 -3.45417e-10 -1.01654e-11 -3.51167e-10 -5.91801e-10 -1.54339e-11 -2.02874e-10 -3.45419e-10 -1.01563e-11 -7.73091 5.47488 -0.417314 -2.02867e-10 -3.45414e-10 -1.01676e-11 -2.90554 0.965183 -0.102902 -2.0287e-10 -3.45413e-10 -1.01693e-11 -10.2786 0.731801 -0.0259123 -2.02864e-10 -3.45413e-10 -1.01752e-11 -2.22167 -0.733487 0.20892 -2.03217e-16 0.0 -3.88251e-19 -5.12209 -15.7074 5.29692 -0.0218405 18.1651 0.578067 -10.3489 -12.4606 -30.4052 2.03217e-16 0.0 3.88251e-19 0.587074 -22.6931 -9.57842 0.0949103 22.2395 -0.367829 4.03617 -8.20436 15.3313
9.74261 82.9782 19.8026 -0.6568 -2.4515 12.4805 3.71958 -12.7891 0.596605 -2.19154 -5.01981 -0.0489078 12.1306 5.31257 3.76373 -10.9739 7.44434 5.8249 -0.0 0.0 0.0 -0.0 0.0 0.0 -3.00039e-14 -2.25867e-14 4.47196e-14 75.7275 20.2885 -15.5602 -16.9165 -9.56758 31.6322 -0.00262724 -1.50871 -0.212079 2.18667e-10 2.18176e-10 2.21231e-10 3.76805e-10 3.79846e-10 3.8276e-10 2.18671e-10 2.18174e-10 2.21223e-10 7.73091 5.47488 0.417314 2.18663e-10 2.18171e-10 2.21236e-10 2.90554 0.965183 0.102902 2.18675e-10 2.18173e-10 2.2123e-10 10.2786 0.731801 0.0259123 2.18664e-10 2.18176e-10 2.21238e-10 2.22167 -0.733487 -0.20892 -3.00633e-14 -2.25874e-14 4.44994e-14 -74.4757 31.3765 20.7732 24.8024 -20.6788 -52.2537 0.00633948 2.51601 -0.353762 1.71357e-10 4.40413e-10 -1.27871e-10 2.96269e-10 7.63708e-10 -2.21246e-10 1.71346e-10 4.40413e-10 -1.27851e-10 -7.73091 5.47488 -0.417314 1.71355e-10 4.40415e-10 -1.27866e-10 -2.90554 0.965183 -0.102902 1.71352e-10 4.40415e-10 -1.27869e-10 -10.2786 0.731801 -0.0259123 1.71356e-10 4.40415e-10 -1.27873e-10 -2.22167 -0.733487 0.20892 -2.03217e-16 0.0 -3.88251e-19 -5.10432 -15.1284 5.76861 -0.0199104 17.7652 0.555678 -9.97161 -12.2956 -29.7567 2.03217e-16 0.0 3.88251e-19 0.428663 -22.7953 -9.70709 0.097608 22.3842 -0.368716 3.91165 -8.30103 14.6654
